<svg version="1.1" id="Layer_1" xmlns="http://www.w3.org/2000/svg" xmlns:xlink="http://www.w3.org/1999/xlink" x="0px" y="0px" viewBox="0 0 24 24" style="enable-background:new 0 0 24 24;" xml:space="preserve">
<style type="text/css">
	.st0{fill:#FFFFFF;}
</style>
<path class="st0" d="M22,24l-5.2-5l0.6,2H4.5C3.1,21,2,19.9,2,18.5v-15C2,2.1,3.1,1,4.5,1h15C20.9,1,22,2.1,22,3.5V24 M12,6.8  c-2.7,0-4.6,1.1-4.6,1.1c1-0.9,2.8-1.4,2.8-1.4l-0.2-0.2c-1.7,0-3.2,1.2-3.2,1.2c-1.7,3.6-1.6,6.7-1.6,6.7c1.4,1.8,3.5,1.7,3.5,1.7  L9.5,15c-1.2-0.3-2-1.4-2-1.4s1.9,1.3,4.6,1.3s4.6-1.3,4.6-1.3s-0.8,1.1-2,1.4l0.7,0.9c0,0,2.1,0.1,3.5-1.7c0,0,0.1-3.1-1.6-6.7  c0,0-1.5-1.2-3.2-1.2l-0.2,0.2c0,0,1.8,0.5,2.8,1.4C16.6,7.9,14.7,6.8,12,6.8 M9.9,10.6c0.6,0,1.2,0.6,1.2,1.3  c0,0.7-0.5,1.3-1.2,1.3c-0.6,0-1.2-0.6-1.2-1.3C8.8,11.2,9.3,10.6,9.9,10.6 M14.1,10.6c0.6,0,1.2,0.6,1.2,1.3c0,0.7-0.5,1.3-1.2,1.3  c-0.6,0-1.2-0.6-1.2-1.3C12.9,11.2,13.4,10.6,14.1,10.6z"/>
</svg>