<svg version="1.1" id="katman_1" xmlns="http://www.w3.org/2000/svg" xmlns:xlink="http://www.w3.org/1999/xlink" x="0px" y="0px" viewBox="0 0 207.05 167.89" style="enable-background:new 0 0 207.05 167.89;" xml:space="preserve">
<style type="text/css">
	.st0{fill:#E30613;}
	.st1{fill:#E30613;stroke:#E30613;stroke-width:8;stroke-linejoin:round;stroke-miterlimit:10;}
	.st2{fill:#FFFFFF;}
</style>
<g>
	<g>
		<g>
			<circle class="st0" cx="103.52" cy="66.28" r="49.79"/>
		</g>
		<g>
			<g>
				<path class="st1" d="M92.29,57.62c-1.49-1.51-3.18-2.81-5.02-3.88v8.55c3.1,3.05,5.02,7.3,5.02,11.99v0.06      c-0.01,3.44-1.05,6.64-2.84,9.3c1.22,2.01,2.89,3.71,4.87,4.96c3.01-3.96,4.8-8.91,4.81-14.26v-0.06      C99.14,67.8,96.53,61.9,92.29,57.62z M81.31,90.09c-1.82,0.68-3.8,1.05-5.86,1.05c-9.31,0-16.85-7.54-16.85-16.85      s7.54-16.85,16.85-16.85c0.5,0,0.98,0.02,1.46,0.07v-6.88c-0.48-0.03-0.97-0.04-1.46-0.04c-13.09,0-23.7,10.61-23.7,23.7      c0,13.09,10.61,23.7,23.7,23.7c3.86,0,7.51-0.92,10.73-2.56C84.32,93.89,82.67,92.09,81.31,90.09z"/>
				<rect x="92.29" y="38.29" class="st1" width="6.85" height="36.05"/>
				<g>
					<path class="st1" d="M127.23,24.55c-13.09,0-23.7,10.61-23.7,23.7c0,6.5,2.61,12.39,6.86,16.67c2.03,2.04,4.42,3.73,7.08,4.93       v-7.88c-4.29-3.05-7.08-8.06-7.08-13.73c0-9.3,7.54-16.85,16.85-16.85c9.3,0,16.85,7.54,16.85,16.85       c0,9.11-7.22,16.53-16.25,16.83v6.87c12.82-0.32,23.11-10.81,23.11-23.7C150.93,35.16,140.32,24.55,127.23,24.55z"/>
					
						<rect x="103.52" y="48.25" transform="matrix(-1 -1.224647e-16 1.224647e-16 -1 213.9023 132.5589)" class="st1" width="6.85" height="36.05"/>
				</g>
			</g>
			<path class="st1" d="M85.51,43.6v6.33v25.91h0.01c0,9.3,7.54,16.85,16.85,16.85c9.3,0,16.85-7.54,16.85-16.85V52.79h6.85v23.05     v3.91v23.05c0,3.22-0.64,6.29-1.81,9.09c-3.56,8.58-12.02,14.61-21.89,14.61c-6.91,0-13.13-2.95-17.46-7.67     c-1.57-1.71-2.9-3.65-3.92-5.77l5.28-5.28c0.72,2.32,1.92,4.43,3.49,6.2c3.08,3.48,7.59,5.67,12.61,5.67     c9.3,0,16.85-7.54,16.85-16.85V92.5c-4.3,4.34-10.26,7.04-16.85,7.04c-12.47,0-22.67-9.62-23.62-21.84h-0.08V50.75     c0-0.27,0.01-0.55,0.02-0.82h-0.02V43.6H85.51z"/>
			<path class="st1" d="M85.51,43.6v6.33v25.91h0.01c0,9.3,7.54,16.85,16.85,16.85c9.3,0,16.85-7.54,16.85-16.85V52.79h6.85v23.05     v3.91v23.05c0,3.22-0.64,6.29-1.81,9.09c-3.56,8.58-12.02,14.61-21.89,14.61c-6.91,0-13.13-2.95-17.46-7.67     c-1.57-1.71-2.9-3.65-3.92-5.77l5.28-5.28c0.72,2.32,1.92,4.43,3.49,6.2c3.08,3.48,7.59,5.67,12.61,5.67     c9.3,0,16.85-7.54,16.85-16.85V92.5c-4.3,4.34-10.26,7.04-16.85,7.04c-12.47,0-22.67-9.62-23.62-21.84h-0.08V50.75     c0-0.27,0.01-0.55,0.02-0.82h-0.02V43.6H85.51z"/>
		</g>
		<g>
			<g>
				<path class="st2" d="M92.29,57.62c-1.49-1.51-3.18-2.81-5.02-3.88v8.55c3.1,3.05,5.02,7.3,5.02,11.99v0.06      c-0.01,3.44-1.05,6.64-2.84,9.3c1.22,2.01,2.89,3.71,4.87,4.96c3.01-3.96,4.8-8.91,4.81-14.26v-0.06      C99.14,67.8,96.53,61.9,92.29,57.62z M81.31,90.09c-1.82,0.68-3.8,1.05-5.86,1.05c-9.31,0-16.85-7.54-16.85-16.85      s7.54-16.85,16.85-16.85c0.5,0,0.98,0.02,1.46,0.07v-6.88c-0.48-0.03-0.97-0.04-1.46-0.04c-13.09,0-23.7,10.61-23.7,23.7      c0,13.09,10.61,23.7,23.7,23.7c3.86,0,7.51-0.92,10.73-2.56C84.32,93.89,82.67,92.09,81.31,90.09z"/>
				<rect x="92.29" y="38.29" class="st2" width="6.85" height="36.05"/>
				<g>
					<path class="st2" d="M127.23,24.55c-13.09,0-23.7,10.61-23.7,23.7c0,6.5,2.61,12.39,6.86,16.67c2.03,2.04,4.42,3.73,7.08,4.93       v-7.88c-4.29-3.05-7.08-8.06-7.08-13.73c0-9.3,7.54-16.85,16.85-16.85c9.3,0,16.85,7.54,16.85,16.85       c0,9.11-7.22,16.53-16.25,16.83v6.87c12.82-0.32,23.11-10.81,23.11-23.7C150.93,35.16,140.32,24.55,127.23,24.55z"/>
					
						<rect x="103.52" y="48.25" transform="matrix(-1 -1.224647e-16 1.224647e-16 -1 213.9023 132.5589)" class="st2" width="6.85" height="36.05"/>
				</g>
			</g>
			<path class="st2" d="M85.51,43.6v6.33v25.91h0.01c0,9.3,7.54,16.85,16.85,16.85c9.3,0,16.85-7.54,16.85-16.85V52.79h6.85v23.05     v3.91v23.05c0,3.22-0.64,6.29-1.81,9.09c-3.56,8.58-12.02,14.61-21.89,14.61c-6.91,0-13.13-2.95-17.46-7.67     c-1.57-1.71-2.9-3.65-3.92-5.77l5.28-5.28c0.72,2.32,1.92,4.43,3.49,6.2c3.08,3.48,7.59,5.67,12.61,5.67     c9.3,0,16.85-7.54,16.85-16.85V92.5c-4.3,4.34-10.26,7.04-16.85,7.04c-12.47,0-22.67-9.62-23.62-21.84h-0.08V50.75     c0-0.27,0.01-0.55,0.02-0.82h-0.02V43.6H85.51z"/>
			<path class="st2" d="M85.51,43.6v6.33v25.91h0.01c0,9.3,7.54,16.85,16.85,16.85c9.3,0,16.85-7.54,16.85-16.85V52.79h6.85v23.05     v3.91v23.05c0,3.22-0.64,6.29-1.81,9.09c-3.56,8.58-12.02,14.61-21.89,14.61c-6.91,0-13.13-2.95-17.46-7.67     c-1.57-1.71-2.9-3.65-3.92-5.77l5.28-5.28c0.72,2.32,1.92,4.43,3.49,6.2c3.08,3.48,7.59,5.67,12.61,5.67     c9.3,0,16.85-7.54,16.85-16.85V92.5c-4.3,4.34-10.26,7.04-16.85,7.04c-12.47,0-22.67-9.62-23.62-21.84h-0.08V50.75     c0-0.27,0.01-0.55,0.02-0.82h-0.02V43.6H85.51z"/>
		</g>
	</g>
	<g>
		
	</g>
</g>
</svg>