<svg version="1.1" id="Layer_1" xmlns="http://www.w3.org/2000/svg" xmlns:xlink="http://www.w3.org/1999/xlink" x="0px" y="0px" viewBox="0 0 24 24" style="enable-background:new 0 0 24 24;" xml:space="preserve">
<style type="text/css">
	.st0{fill:#FFFFFF;}
</style>
<path class="st0" d="M14.6,9.7C14.6,9.7,14.6,9.7,14.6,9.7L16.4,9c0.6,0.3,1.4,0.5,2.2,0.5c2.2,0,4-1.4,4-3.2s-1.8-3.2-4-3.2  s-4,1.4-4,3.2c0,0.5,0.2,1,0.5,1.5l-0.7,1.6c0,0.1,0,0.2,0,0.2C14.5,9.7,14.5,9.7,14.6,9.7z"/>
<circle class="st0" cx="12" cy="12.5" r="2.8"/>
<circle class="st0" cx="18.4" cy="13.7" r="2.4"/>
<circle class="st0" cx="5.6" cy="13.7" r="2.4"/>
<path class="st0" d="M12,16.1c-2.1,0-4.1,1.1-5.4,2.8c-0.1,0.2-0.2,0.4-0.2,0.6v0.5c0,0.4,0.4,0.8,0.8,0.8h9.5  c0.4,0,0.8-0.4,0.8-0.8v-0.5c0-0.2-0.1-0.4-0.2-0.6C16.1,17.1,14.1,16.1,12,16.1z"/>
<path class="st0" d="M22.8,19.2c-0.5-0.8-1.2-1.4-2-1.8c-0.1,0-0.1-0.1-0.2-0.1c-0.1-0.1-0.2-0.1-0.4-0.2c-0.1,0-0.2-0.1-0.4-0.1  c-0.1,0-0.2-0.1-0.2-0.1c-0.2,0-0.3-0.1-0.5-0.1c-0.1,0-0.1,0-0.2,0c-0.2,0-0.4,0-0.7,0c-0.3,0-0.5,0-0.8,0.1c0,0-0.1,0-0.1,0  c-0.2,0-0.4,0.1-0.6,0.1c0,0,0,0,0,0c0,0,0,0,0,0c0.4,0.4,0.9,0.8,1.2,1.3c0.2,0.3,0.3,0.7,0.3,1.1v1.3h3.8h0.1  c0.1,0,0.2-0.1,0.3-0.1c0.2-0.1,0.4-0.4,0.4-0.6v-0.3C23,19.6,22.9,19.4,22.8,19.2z"/>
<path class="st0" d="M7.2,17.1C7.2,17.1,7.1,17.1,7.2,17.1C7.1,17.1,7.1,17.1,7.2,17.1C6.9,17,6.7,17,6.5,17c0,0-0.1,0-0.1,0  c-0.3,0-0.5-0.1-0.8-0.1c-0.2,0-0.4,0-0.7,0c-0.1,0-0.1,0-0.2,0C4.7,17,4.5,17,4.4,17c-0.1,0-0.2,0-0.2,0.1c-0.1,0-0.2,0.1-0.4,0.1  c-0.1,0-0.2,0.1-0.4,0.2c-0.1,0-0.1,0.1-0.2,0.1c-0.8,0.4-1.5,1-2,1.8C1.1,19.4,1,19.6,1,19.8v0.3c0,0.3,0.1,0.5,0.4,0.6  c0.1,0.1,0.2,0.1,0.3,0.1h0.1h3.8v-1.3c0-0.4,0.1-0.7,0.3-1.1C6.3,17.9,6.7,17.5,7.2,17.1z"/>
</svg>