<svg id="Layer_1" data-name="Layer 1" xmlns="http://www.w3.org/2000/svg" viewBox="0 0 1116.51 227.92"><defs><style>.cls-1{fill:#fff;}</style></defs><path class="cls-1" d="M799.5,188.83v-16.6h25V214H0V0H824.51V41.73H799.64V25.2H25.17V188.83Z"/><path class="cls-1" d="M904.41,121.31V60.75h23.76v92.31c-.86.07-1.67.2-2.48.2-6.44,0-12.89.11-19.34-.07a5.23,5.23,0,0,1-3.64-1.79c-11.18-15.08-22.35-30.18-33.24-45.47-3.12-4.37-5.35-9.37-7.79-13.74V153H837.9V60.51h12.58c3.83,0,8.28-1.15,11.32.41s5,5.86,7.28,9c9,12.27,18.17,24.45,27,36.88C899.36,111.51,901.84,116.8,904.41,121.31Z"/><path class="cls-1" d="M131.28,119.22H105.76V99.8h49.39a72.06,72.06,0,0,1-2.05,23.62c-5.19,18.8-19.85,30.53-39.81,31.78-11.75.74-23.29-.12-33.44-6.83-16.7-11-23.52-27-21.92-46.64S72.19,66.17,91,60.85c18.41-5.19,35.76-3,50.55,10.31,2.74,2.47,4.95,5.53,7.65,8.58-7.34,3.53-14.19,6.9-21.14,10.06-.6.27-2.11-.65-2.74-1.4a24.2,24.2,0,0,0-29.49-6.1A21.92,21.92,0,0,0,84.67,96a39,39,0,0,0,.39,25.07c3,8.29,8.88,13.61,17.75,14.8,9.13,1.24,17.65-.35,23.89-7.85C128.62,125.73,129.56,122.61,131.28,119.22Z"/><path class="cls-1" d="M263.93,107.23c0,27-21.9,48.47-49.37,48.47S165,134,165,106.72c0-27,22.06-48.3,49.89-48.27A48.58,48.58,0,0,1,263.93,107.23Zm-25.15-1.71a65.33,65.33,0,0,0-2-9.2C233.2,85.78,224,79.53,213.29,80c-10.26.42-18.95,7.74-21.77,18.35a35.58,35.58,0,0,0-.61,15c2.57,16.09,18.74,25.5,33.15,18.83C234.42,127.34,238.34,118.26,238.78,105.52Z"/><path class="cls-1" d="M636.9,153.09H611.72V125.67H578.48V153H553V60.69h25.31v45.59h33.35V60.71H636.9Z"/><path class="cls-1" d="M399.8,88h33.48V60.75h25.21V153H433.43V107.49h-33.5V153h-25.3V60.71H399.8Z"/><path class="cls-1" d="M302,60.66v41.45c1.77-2.49,3.11-4.34,4.41-6.21,7.75-11.12,15.51-22.22,23.18-33.39a4.1,4.1,0,0,1,3.88-2c8.13.1,16.27,0,24.4,0h2.79l-34.22,45.21L363.5,153.1c-1.51.08-2.4.17-3.3.17-8.5,0-17-.05-25.51,0a4.7,4.7,0,0,1-4.4-2.2c-8.43-11.78-17-23.47-25.48-35.19-.76-1-1.54-2.08-2.85-3.85v41H276.89V60.66Z"/><path class="cls-1" d="M729.45,60.65h56.4V81.18h-31.7V96.83h29.93V116.7H754.17v16.08h31.7v20.28H729.45Z"/><path class="cls-1" d="M475.92,147.33l7.83-18c2.79,1.66,5.34,3.37,8.05,4.75a20.2,20.2,0,0,0,12.78,2.06c4-.66,6.77-3.23,7.18-6.46.46-3.6-1.11-6.39-5.17-8-3.89-1.54-8-2.58-12-3.89-2.48-.81-4.95-1.67-7.39-2.58-10.64-3.93-15.33-12-15.57-22.93-.44-20.09,12.67-33.37,33.43-34,13.49-.45,25.1,3.89,34.95,13.73L528.76,90.67c-2.36-2.18-4.43-4.31-6.71-6.17-5.13-4.2-10.77-7.1-17.7-6.2-5.09.66-8.55,3.85-9.17,8.4s1.52,8.2,6.58,10.13c4.26,1.63,8.76,2.63,13,4.27a77.86,77.86,0,0,1,11.37,5.3c5.73,3.36,8.51,8.81,9.13,15.29,1.84,19.18-10.44,33.24-29.75,34A47.53,47.53,0,0,1,475.92,147.33Z"/><path class="cls-1" d="M670.6,82.65H649.94V60.73h66.4V82.54H695.78V153.1H670.6Z"/><path class="cls-1" d="M799.62,60.65h24.93v92.48H799.62Z"/><path class="cls-1" d="M879.68,214.18l-1.82-16.42-.34-3.77-.28-3.79c-.19,1.32-.43,2.63-.74,3.93s-.68,2.67-1.13,4.11l-4.76,15.94h-8.86L857,198.24c-.19-.62-.39-1.35-.62-2.18-.1-.38-.27-1.07-.54-2.07l-.71-3.79c0,.43,0,.82,0,1.16s-.12,1.21-.27,2.63c0,.44,0,.82,0,1.15s-.12,1.2-.27,2.62l-1.81,16.42H838.07l7.08-41.46h15.38l3,10.25.42,1.45a63.58,63.58,0,0,1,2.3,10.68h.25q.34-2.64,1-5.64t1.8-6.66l3.09-10.08h15.35l6.57,41.46Z"/><path class="cls-1" d="M898.4,214.18V172.72h27.72V184H913v4H924.9v10.62H913v4.36h13.45v11.24Z"/><path class="cls-1" d="M932.49,214.18V172.72h12.07a65,65,0,0,1,9.88.63,20.48,20.48,0,0,1,14.79,9.47,21.17,21.17,0,0,1,0,21.25,21.07,21.07,0,0,1-8.29,7.51,21.58,21.58,0,0,1-6.75,2,74.74,74.74,0,0,1-10.78.62Zm14.79-12.66q5,0,7.33-2c1.57-1.32,2.35-3.34,2.35-6.08s-.74-4.71-2.23-6-3.76-2-6.8-2h-.65Z"/><path class="cls-1" d="M978.66,214.18V172.72h15.15v41.46Z"/><path class="cls-1" d="M996.36,214.18l14.78-41.46h16.59l14.5,41.46h-16l-1.34-5.21h-11.24l-1.27,5.21Zm19.76-15.06h6.21l-1.28-4.7c-.64-2.42-1.07-4.25-1.27-5.5-.1-.56-.19-1.19-.29-1.88a14,14,0,0,1-.14-1.74h-.25a10.94,10.94,0,0,1-.09,1.47c0,.43-.18,1.2-.37,2.31s-.6,2.88-1.24,5.34Z"/></svg>