<svg version="1.1" id="Layer_1" xmlns="http://www.w3.org/2000/svg" xmlns:xlink="http://www.w3.org/1999/xlink" x="0px" y="0px" viewBox="0 0 24 24" style="enable-background:new 0 0 24 24;" xml:space="preserve">
<style type="text/css">
	.st0{fill:#FFFFFF;}
</style>
<path class="st0" d="M20.2,2H3.8C2.8,2,2,2.8,2,3.8v16.4c0,1,0.8,1.8,1.8,1.8h16.4c1,0,1.8-0.8,1.8-1.8V3.8C22,2.8,21.2,2,20.2,2z   M18.9,17.5h-5.4v-0.3l1.3-1.1V9.7l-3.1,7.8h-0.5L7.7,9.6v5.5l1.6,2v0.3H5.1v-0.3l1.6-2V8.6L5.3,6.8c0,0,0-0.3,0-0.2h4l3.1,6.7  l2.7-6.7h3.8v0.2l-1.4,1.2V16l1.4,1.1V17.5z"/>
</svg>